<?xml version="1.0" encoding="iso-8859-1"?>
<!-- Generator: Adobe Illustrator 19.0.0, SVG Export Plug-In . SVG Version: 6.00 Build 0)  -->
<svg version="1.1" id="Capa_1" xmlns="http://www.w3.org/2000/svg" xmlns:xlink="http://www.w3.org/1999/xlink" x="0px" y="0px"
	 viewBox="0 0 512 512" style="enable-background:new 0 0 512 512;" xml:space="preserve">
<path style="fill:#18A7FC;" d="M512,406V226c0-24.899-20.098-45-45-45h-61c-24.902,0-45,20.101-45,45v180c0,24.901,20.098,45,45,45
	h61C491.902,451,512,430.901,512,406z"/>
<path style="fill:#1689FC;" d="M361,316v90c0,24.901,20.098,45,45,45h61c24.902,0,45-20.099,45-45v-90H361z"/>
<g>
	<circle style="fill:#CAE8F9;" cx="436" cy="376" r="15"/>
	<circle style="fill:#CAE8F9;" cx="436" cy="376" r="15"/>
</g>
<path style="fill:#FEC478;" d="M361,406h-60l-61.363,27.394c-3.848,1.718-8.015,2.606-12.23,2.606H90c-16.501,0-30-13.5-30-30
	s13.499-30,30-30H60c-16.567,0-30-13.431-30-30c0-16.567,13.433-30,30-30H30c-16.567,0-30-13.431-30-30c0-16.567,13.433-30,30-30
	c-16.501,0-30-13.5-30-30s13.499-30,30-30h136v-90c0-25.136,20.482-45.382,45.712-44.995c7.856,0.121,14.291,6.761,14.288,14.618
	c-0.005,12.3,1.188,30.933,7.5,52.278C239.499,149.2,250.602,173.2,271,196c19.2,19.2,45.3,30,72.297,30H361V406z"/>
<path style="fill:#FEB756;" d="M60,316c-16.567,0-30,13.433-30,30c0,16.569,13.433,30,30,30h30c-16.501,0-30,13.5-30,30
	s13.499,30,30,30h137.406c4.215,0,8.383-0.888,12.231-2.606L301,406h60v-90H60z"/>
<g>
</g>
<g>
</g>
<g>
</g>
<g>
</g>
<g>
</g>
<g>
</g>
<g>
</g>
<g>
</g>
<g>
</g>
<g>
</g>
<g>
</g>
<g>
</g>
<g>
</g>
<g>
</g>
<g>
</g>
</svg>
